<svg version="1.1" id="Layer_1" xmlns="http://www.w3.org/2000/svg" xmlns:xlink="http://www.w3.org/1999/xlink" x="0px" y="0px" viewBox="0 0 1200 1200" enable-background="new 0 0 1200 1200" xml:space="preserve">
<g>
	<path fill="#9ed4a2" d="M912.92,164.129C806.743,86.484,680.452,50,600,50c-80.452,0-206.743,36.484-312.92,114.129&#10;&#9;&#9;C180.902,241.775,94.837,360.582,94.837,525.228c0,128.058,39.614,217.634,88.031,279.291&#10;&#9;&#9;c48.417,61.657,105.637,95.397,140.849,111.781c10.044,4.673,18.308,12.012,24.061,20.951c5.753,8.94,8.995,19.48,8.995,30.558&#10;&#9;&#9;v15.738v15.738v56.302v56.302c0,10.524,4.266,20.052,11.162,26.948c6.897,6.897,16.424,11.162,26.948,11.162h0&#10;&#9;&#9;c10.524,0,20.052-4.266,26.948-11.162c6.897-6.897,11.162-16.424,11.162-26.948v-41.172v-41.172c0-8.356,3.387-15.922,8.863-21.398&#10;&#9;&#9;c5.476-5.476,13.041-8.863,21.398-8.863h0.001h0c8.356,0,15.922,3.387,21.398,8.863c5.476,5.476,8.863,13.041,8.863,21.398v40.519&#10;&#9;&#9;v40.519c0,10.149,3.829,19.655,10.191,26.787c6.361,7.132,15.255,11.891,25.383,12.547c11.098,0.719,21.26-3.317,28.647-10.267&#10;&#9;&#9;c7.387-6.951,12-16.817,12-27.761v-41.172v-41.172c0-8.356,3.387-15.922,8.863-21.398c5.476-5.476,13.041-8.863,21.398-8.863h0.001&#10;&#9;&#9;h0.001c8.356,0,15.922,3.387,21.398,8.863c5.476,5.476,8.863,13.041,8.863,21.398v40.519v40.519&#10;&#9;&#9;c0,10.149,3.829,19.655,10.191,26.787c6.361,7.132,15.255,11.891,25.383,12.547c11.098,0.719,21.26-3.317,28.648-10.267&#10;&#9;&#9;c7.387-6.951,12-16.817,12-27.761v-41.172v-41.172c0-8.356,3.387-15.922,8.863-21.398c5.476-5.476,13.041-8.863,21.398-8.863&#10;&#9;&#9;c8.357,0,15.922,3.387,21.399,8.864c5.477,5.476,8.864,13.042,8.864,21.399v40.518v40.518c0,10.149,3.829,19.655,10.191,26.787&#10;&#9;&#9;c6.361,7.132,15.255,11.891,25.383,12.547c11.098,0.719,21.26-3.317,28.647-10.267c7.387-6.951,12-16.817,12-27.761v-56.302&#10;&#9;&#9;v-56.302h0h-0.001v-15.738v-15.738c0-11.078,3.242-21.618,8.995-30.558c5.753-8.939,14.017-16.278,24.061-20.951&#10;&#9;&#9;c35.212-16.385,92.432-50.124,140.849-111.781c48.417-61.657,88.031-151.233,88.031-279.291&#10;&#9;&#9;C1105.163,360.582,1019.098,241.775,912.92,164.129z M348.659,720.694c-72.237,0-130.796-81.526-130.796-182.093&#10;&#9;&#9;c0-100.568,58.559-182.094,130.796-182.094s130.796,81.526,130.796,182.094C479.456,639.168,420.896,720.694,348.659,720.694z&#10;&#9;&#9; M564.69,860.3c0,8.316-6.741,15.057-15.057,15.057h-63.093c-11.228,0-18.506-11.847-13.432-21.863l63.093-124.526&#10;&#9;&#9;c7.161-14.135,28.489-9.04,28.489,6.805V860.3z M713.461,875.357h-63.093c-8.316,0-15.057-6.741-15.057-15.057V735.774&#10;&#9;&#9;c0-15.845,21.328-20.94,28.489-6.805l63.093,124.526C731.967,863.511,724.689,875.357,713.461,875.357z M851.341,720.694&#10;&#9;&#9;c-72.237,0-130.796-81.526-130.796-182.093c0-100.568,58.559-182.094,130.796-182.094c72.237,0,130.796,81.526,130.796,182.094&#10;&#9;&#9;C982.137,639.168,923.578,720.694,851.341,720.694z" style="fill: #9ed4a2;"/>
	<path fill="#333542" d="M536.201,728.969l-63.093,124.526c-5.075,10.016,2.203,21.863,13.432,21.863h63.093&#10;&#9;&#9;c8.316,0,15.057-6.741,15.057-15.057V735.774C564.69,719.929,543.362,714.834,536.201,728.969z" style="fill: #333542;"/>
	<path fill="#333542" d="M663.799,728.969c-7.161-14.135-28.489-9.04-28.489,6.805V860.3c0,8.316,6.741,15.057,15.057,15.057h63.093&#10;&#9;&#9;c11.228,0,18.507-11.847,13.432-21.863L663.799,728.969z" style="fill: #333542;"/>
	<ellipse fill="#333542" cx="348.659" cy="538.601" rx="130.796" ry="182.094" style="fill: #333542;"/>
	<ellipse fill="#333542" cx="851.341" cy="538.601" rx="130.796" ry="182.094" style="fill: #333542;"/>
</g>
</svg>