<?xml version="1.0" encoding="utf-8"?>
<!-- Generator: Adobe Illustrator 23.0.6, SVG Export Plug-In . SVG Version: 6.00 Build 0)  -->
<svg version="1.1" id="Layer_1" xmlns="http://www.w3.org/2000/svg" xmlns:xlink="http://www.w3.org/1999/xlink" x="0px" y="0px"
	 viewBox="0 0 1200 1200" enable-background="new 0 0 1200 1200" xml:space="preserve">
<g style='transform-origin:center center; transform: translateY(-15%) scale(1.2);
'>
	<path fill="#c45255" d="M854.56,992.905c-10.965,3.364-20.164,9.736-27.029,17.909l-191.93-186.819l191.93-186.819
		c6.865,8.174,16.064,14.546,27.029,17.909c30.27,9.286,62.337-7.725,71.623-37.995c9.286-30.27-7.725-62.337-37.996-71.623
		c-2.268-0.696-4.546-1.226-6.823-1.632c-4.086-19.864-18.604-36.941-39.358-43.308c-30.27-9.286-62.337,7.725-71.623,37.996
		c-7.467,24.34,2.078,49.831,21.838,63.717L600,789.342L407.78,602.24c19.76-13.886,29.304-39.377,21.838-63.717
		c-9.286-30.27-41.353-47.282-71.623-37.996c-20.754,6.367-35.273,23.444-39.358,43.308c-2.277,0.406-4.555,0.936-6.823,1.632
		c-30.27,9.286-47.282,41.353-37.996,71.623c9.286,30.27,41.353,47.281,71.623,37.995c10.965-3.364,20.164-9.735,27.029-17.909
		l191.93,186.819l-191.93,186.819c-6.865-8.174-16.064-14.546-27.029-17.909c-30.27-9.286-62.337,7.725-71.623,37.996
		c-9.286,30.27,7.725,62.337,37.996,71.623c2.268,0.696,4.546,1.226,6.823,1.632c4.086,19.864,18.604,36.941,39.358,43.308
		c30.27,9.286,62.337-7.725,71.623-37.995c7.467-24.34-2.078-49.831-21.838-63.717L600,858.649l192.221,187.103
		c-19.76,13.886-29.305,39.377-21.838,63.717c9.286,30.27,41.353,47.281,71.623,37.995c20.755-6.367,35.273-23.444,39.358-43.308
		c2.277-0.406,4.555-0.936,6.823-1.632c30.27-9.286,47.282-41.353,37.996-71.623C916.897,1000.63,884.83,983.619,854.56,992.905z"/>
	<g>
	
	</g>
</g>
</svg>
